<?xml version="1.0" encoding="UTF-8" standalone="no"?>
<!DOCTYPE svg PUBLIC "-//W3C//DTD SVG 1.1//EN"
 "http://www.w3.org/Graphics/SVG/1.1/DTD/svg11.dtd">
<!-- Generated by graphviz version 2.38.0 (20140413.2041)
 -->
<!-- Title: G Pages: 1 -->
<svg width="8506pt" height="772pt"
 viewBox="0.00 0.00 8506.00 772.00" xmlns="http://www.w3.org/2000/svg" xmlns:xlink="http://www.w3.org/1999/xlink">
<g id="graph0" class="graph" transform="scale(1 1) rotate(0) translate(4 768)">
<title>G</title>
<polygon fill="white" stroke="none" points="-4,4 -4,-768 8502,-768 8502,4 -4,4"/>
<g id="clust1" class="cluster"><title>cluster_0</title>
<polygon fill="lightgray" stroke="lightgrey" points="8,-643.8 8,-740.8 831,-740.8 831,-643.8 8,-643.8"/>
<text text-anchor="middle" x="419.633" y="-709.8" font-family="Times,serif" font-size="30.00">C:/Users/dhavr/WebstormProjects/realUmls/src/containers/index.js</text>
</g>
<g id="clust2" class="cluster"><title>cluster_1</title>
<polygon fill="lightgray" stroke="lightgrey" points="839,-398 839,-756 1707,-756 1707,-398 839,-398"/>
<text text-anchor="middle" x="1273.13" y="-725" font-family="Times,serif" font-size="30.00">C:/Users/dhavr/WebstormProjects/realUmls/src/containers/App/App.js</text>
</g>
<g id="clust3" class="cluster"><title>cluster_2</title>
<polygon fill="lightgray" stroke="lightgrey" points="1715,-352 1715,-743.6 2626,-743.6 2626,-352 1715,-352"/>
<text text-anchor="middle" x="2170.79" y="-712.6" font-family="Times,serif" font-size="30.00">C:/Users/dhavr/WebstormProjects/realUmls/src/containers/Home/Home.js</text>
</g>
<g id="clust4" class="cluster"><title>cluster_3</title>
<polygon fill="lightgray" stroke="lightgrey" points="2634,-284.8 2634,-756 3658,-756 3658,-284.8 2634,-284.8"/>
<text text-anchor="middle" x="3146.42" y="-725" font-family="Times,serif" font-size="30.00">C:/Users/dhavr/WebstormProjects/realUmls/src/containers/Dashboard/Dashboard.js</text>
</g>
<g id="clust5" class="cluster"><title>cluster_4</title>
<polygon fill="lightgray" stroke="lightgrey" points="3666,-628.6 3666,-756 4667,-756 4667,-628.6 3666,-628.6"/>
<text text-anchor="middle" x="4166.78" y="-725" font-family="Times,serif" font-size="30.00">C:/Users/dhavr/WebstormProjects/realUmls/src/containers/DevTools/DevTools.js</text>
</g>
<g id="clust6" class="cluster"><title>cluster_5</title>
<polygon fill="lightgray" stroke="lightgrey" points="4675,-83.4 4675,-756 5583,-756 5583,-83.4 4675,-83.4"/>
<text text-anchor="middle" x="5129.14" y="-725" font-family="Times,serif" font-size="30.00">C:/Users/dhavr/WebstormProjects/realUmls/src/containers/Login/Login.js</text>
</g>
<g id="clust7" class="cluster"><title>cluster_6</title>
<polygon fill="lightgray" stroke="lightgrey" points="5591,-641 5591,-743.6 6599,-743.6 6599,-641 5591,-641"/>
<text text-anchor="middle" x="6095.15" y="-712.6" font-family="Times,serif" font-size="30.00">C:/Users/dhavr/WebstormProjects/realUmls/src/containers/NotFound/NotFound.js</text>
</g>
<g id="clust8" class="cluster"><title>cluster_7</title>
<polygon fill="lightgray" stroke="lightgrey" points="6607,-66.6 6607,-756 7571,-756 7571,-66.6 6607,-66.6"/>
<text text-anchor="middle" x="7089.44" y="-725" font-family="Times,serif" font-size="30.00">C:/Users/dhavr/WebstormProjects/realUmls/src/containers/Register/Register.js</text>
</g>
<g id="clust9" class="cluster"><title>cluster_8</title>
<polygon fill="lightgray" stroke="lightgrey" points="7579,-8 7579,-743.6 8490,-743.6 8490,-8 7579,-8"/>
<text text-anchor="middle" x="8034.82" y="-712.6" font-family="Times,serif" font-size="30.00">C:/Users/dhavr/WebstormProjects/realUmls/src/containers/Room/Room.js</text>
</g>
<!-- 0 -->
<g id="node1" class="node"><title>0</title>
<polygon fill="lightyellow" stroke="black" points="370.959,-652.3 370.959,-688.3 467.041,-688.3 467.041,-652.3 370.959,-652.3"/>
<text text-anchor="middle" x="419" y="-666.2" font-family="Times,serif" font-size="14.00">«GLOBAL»</text>
</g>
<!-- 1 -->
<g id="node2" class="node"><title>1</title>
<polygon fill="lightyellow" stroke="black" points="1565.96,-652.3 1565.96,-688.3 1662.04,-688.3 1662.04,-652.3 1565.96,-652.3"/>
<text text-anchor="middle" x="1614" y="-666.2" font-family="Times,serif" font-size="14.00">«GLOBAL»</text>
</g>
<!-- 9 -->
<g id="node3" class="node"><title>9</title>
<polygon fill="lightblue" stroke="black" points="1303.58,-637.1 1303.58,-703.5 1414.42,-703.5 1414.42,-637.1 1303.58,-637.1"/>
<text text-anchor="middle" x="1359" y="-686.9" font-family="Times,serif" font-size="14.00">«FUNCTION»</text>
<text text-anchor="middle" x="1359" y="-670.1" font-family="Times,serif" font-size="14.00"> function</text>
<polyline fill="none" stroke="black" points="1303.58,-661.9 1414.42,-661.9 "/>
<text text-anchor="start" x="1311.58" y="-645.3" font-family="Times,serif" font-size="14.00">&#45;promises : array</text>
</g>
<!-- 10 -->
<g id="node4" class="node"><title>10</title>
<polygon fill="khaki" stroke="black" points="1306.48,-406.5 1306.48,-448.1 1411.52,-448.1 1411.52,-406.5 1306.48,-406.5"/>
<text text-anchor="middle" x="1359" y="-431.5" font-family="Times,serif" font-size="14.00">«BLOCK»</text>
<text text-anchor="middle" x="1359" y="-414.7" font-family="Times,serif" font-size="14.00"> CallExpression</text>
</g>
<!-- 9&#45;&gt;10 -->
<g id="edge1" class="edge"><title>9&#45;&gt;10</title>
<path fill="none" stroke="black" d="M1359,-624.481C1359,-571.84 1359,-486.824 1359,-448.352"/>
<polygon fill="black" stroke="black" points="1359,-624.798 1363,-630.798 1359,-636.798 1355,-630.798 1359,-624.798"/>
</g>
<!-- 11 -->
<g id="node5" class="node"><title>11</title>
<polygon fill="lightblue" stroke="black" points="1180.96,-649.5 1180.96,-691.1 1291.04,-691.1 1291.04,-649.5 1180.96,-649.5"/>
<text text-anchor="middle" x="1236" y="-674.5" font-family="Times,serif" font-size="14.00">«FUNCTION»</text>
<text text-anchor="middle" x="1236" y="-657.7" font-family="Times,serif" font-size="14.00"> function</text>
</g>
<!-- 12 -->
<g id="node6" class="node"><title>12</title>
<polygon fill="khaki" stroke="black" points="1049.56,-649.5 1049.56,-691.1 1132.44,-691.1 1132.44,-649.5 1049.56,-649.5"/>
<text text-anchor="middle" x="1091" y="-674.5" font-family="Times,serif" font-size="14.00">«CLASS»</text>
<text text-anchor="middle" x="1091" y="-657.7" font-family="Times,serif" font-size="14.00"> App</text>
</g>
<!-- 13 -->
<g id="node7" class="node"><title>13</title>
<polygon fill="lightblue" stroke="black" points="918.96,-406.5 918.96,-448.1 1029.04,-448.1 1029.04,-406.5 918.96,-406.5"/>
<text text-anchor="middle" x="974" y="-431.5" font-family="Times,serif" font-size="14.00">«FUNCTION»</text>
<text text-anchor="middle" x="974" y="-414.7" font-family="Times,serif" font-size="14.00"> propTypes()</text>
</g>
<!-- 12&#45;&gt;13 -->
<g id="edge2" class="edge"><title>12&#45;&gt;13</title>
<path fill="none" stroke="black" d="M1051.31,-641.346C1044.49,-635.137 1037.99,-628.136 1033,-620.6 996.071,-564.847 981.376,-484.899 976.316,-448.153"/>
<polygon fill="black" stroke="black" points="1051.56,-641.553 1058.72,-642.371 1060.72,-649.299 1053.56,-648.481 1051.56,-641.553"/>
</g>
<!-- 14 -->
<g id="node8" class="node"><title>14</title>
<polygon fill="lightblue" stroke="black" points="1035.96,-406.5 1035.96,-448.1 1146.04,-448.1 1146.04,-406.5 1035.96,-406.5"/>
<text text-anchor="middle" x="1091" y="-431.5" font-family="Times,serif" font-size="14.00">«FUNCTION»</text>
<text text-anchor="middle" x="1091" y="-414.7" font-family="Times,serif" font-size="14.00"> contextTypes()</text>
</g>
<!-- 12&#45;&gt;14 -->
<g id="edge3" class="edge"><title>12&#45;&gt;14</title>
<path fill="none" stroke="black" d="M1091,-637.063C1091,-586.453 1091,-489.843 1091,-448.206"/>
<polygon fill="black" stroke="black" points="1091,-637.167 1095,-643.167 1091,-649.167 1087,-643.167 1091,-637.167"/>
</g>
<!-- 15 -->
<g id="node9" class="node"><title>15</title>
<polygon fill="lightblue" stroke="black" points="1152.96,-406.5 1152.96,-448.1 1263.04,-448.1 1263.04,-406.5 1152.96,-406.5"/>
<text text-anchor="middle" x="1208" y="-431.5" font-family="Times,serif" font-size="14.00">«FUNCTION»</text>
<text text-anchor="middle" x="1208" y="-414.7" font-family="Times,serif" font-size="14.00"> handleLogout()</text>
</g>
<!-- 12&#45;&gt;15 -->
<g id="edge4" class="edge"><title>12&#45;&gt;15</title>
<path fill="none" stroke="black" d="M1130.69,-641.346C1137.51,-635.137 1144.01,-628.136 1149,-620.6 1185.93,-564.847 1200.62,-484.899 1205.68,-448.153"/>
<polygon fill="black" stroke="black" points="1130.44,-641.553 1128.44,-648.481 1121.28,-649.299 1123.28,-642.371 1130.44,-641.553"/>
</g>
<!-- 2 -->
<g id="node10" class="node"><title>2</title>
<polygon fill="lightyellow" stroke="black" points="2358.96,-652.3 2358.96,-688.3 2455.04,-688.3 2455.04,-652.3 2358.96,-652.3"/>
<text text-anchor="middle" x="2407" y="-666.2" font-family="Times,serif" font-size="14.00">«GLOBAL»</text>
</g>
<!-- 16 -->
<g id="node11" class="node"><title>16</title>
<polygon fill="khaki" stroke="black" points="1945.56,-649.5 1945.56,-691.1 2028.44,-691.1 2028.44,-649.5 1945.56,-649.5"/>
<text text-anchor="middle" x="1987" y="-674.5" font-family="Times,serif" font-size="14.00">«CLASS»</text>
<text text-anchor="middle" x="1987" y="-657.7" font-family="Times,serif" font-size="14.00"> Home</text>
</g>
<!-- 17 -->
<g id="node12" class="node"><title>17</title>
<polygon fill="lightblue" stroke="black" points="1884.85,-360.5 1884.85,-494.1 2089.15,-494.1 2089.15,-360.5 1884.85,-360.5"/>
<text text-anchor="middle" x="1987" y="-477.5" font-family="Times,serif" font-size="14.00">«FUNCTION»</text>
<text text-anchor="middle" x="1987" y="-460.7" font-family="Times,serif" font-size="14.00"> render()</text>
<polyline fill="none" stroke="black" points="1884.85,-452.5 2089.15,-452.5 "/>
<text text-anchor="start" x="1892.85" y="-435.9" font-family="Times,serif" font-size="14.00">&#45;className : binaryexpression</text>
<text text-anchor="start" x="1892.85" y="-419.1" font-family="Times,serif" font-size="14.00">&#45;logoImage : variable = .logo.png</text>
<text text-anchor="start" x="1892.85" y="-402.3" font-family="Times,serif" font-size="14.00">&#45;src : binaryexpression</text>
<text text-anchor="start" x="1892.85" y="-385.5" font-family="Times,serif" font-size="14.00">&#45;styles : variable = .Home.scss</text>
<text text-anchor="start" x="1892.85" y="-368.7" font-family="Times,serif" font-size="14.00">&#45;title : binaryexpression</text>
</g>
<!-- 16&#45;&gt;17 -->
<g id="edge5" class="edge"><title>16&#45;&gt;17</title>
<path fill="none" stroke="black" d="M1987,-636.897C1987,-600.504 1987,-540.474 1987,-494.132"/>
<polygon fill="black" stroke="black" points="1987,-637.167 1991,-643.167 1987,-649.167 1983,-643.167 1987,-637.167"/>
</g>
<!-- 3 -->
<g id="node13" class="node"><title>3</title>
<polygon fill="lightyellow" stroke="black" points="3551.96,-652.3 3551.96,-688.3 3648.04,-688.3 3648.04,-652.3 3551.96,-652.3"/>
<text text-anchor="middle" x="3600" y="-666.2" font-family="Times,serif" font-size="14.00">«GLOBAL»</text>
</g>
<!-- 18 -->
<g id="node14" class="node"><title>18</title>
<polygon fill="lightblue" stroke="black" points="3424.58,-637.1 3424.58,-703.5 3535.42,-703.5 3535.42,-637.1 3424.58,-637.1"/>
<text text-anchor="middle" x="3480" y="-686.9" font-family="Times,serif" font-size="14.00">«FUNCTION»</text>
<text text-anchor="middle" x="3480" y="-670.1" font-family="Times,serif" font-size="14.00"> function</text>
<polyline fill="none" stroke="black" points="3424.58,-661.9 3535.42,-661.9 "/>
<text text-anchor="start" x="3432.58" y="-645.3" font-family="Times,serif" font-size="14.00">&#45;promises : array</text>
</g>
<!-- 19 -->
<g id="node15" class="node"><title>19</title>
<polygon fill="khaki" stroke="black" points="3422.48,-406.5 3422.48,-448.1 3527.52,-448.1 3527.52,-406.5 3422.48,-406.5"/>
<text text-anchor="middle" x="3475" y="-431.5" font-family="Times,serif" font-size="14.00">«BLOCK»</text>
<text text-anchor="middle" x="3475" y="-414.7" font-family="Times,serif" font-size="14.00"> CallExpression</text>
</g>
<!-- 18&#45;&gt;19 -->
<g id="edge6" class="edge"><title>18&#45;&gt;19</title>
<path fill="none" stroke="black" d="M3479.07,-624.481C3477.98,-571.84 3476.21,-486.824 3475.42,-448.352"/>
<polygon fill="black" stroke="black" points="3479.08,-624.8 3483.2,-630.716 3479.33,-636.798 3475.2,-630.882 3479.08,-624.8"/>
</g>
<!-- 20 -->
<g id="node16" class="node"><title>20</title>
<polygon fill="khaki" stroke="black" points="3534.48,-406.5 3534.48,-448.1 3639.52,-448.1 3639.52,-406.5 3534.48,-406.5"/>
<text text-anchor="middle" x="3587" y="-431.5" font-family="Times,serif" font-size="14.00">«BLOCK»</text>
<text text-anchor="middle" x="3587" y="-414.7" font-family="Times,serif" font-size="14.00"> CallExpression</text>
</g>
<!-- 18&#45;&gt;20 -->
<g id="edge7" class="edge"><title>18&#45;&gt;20</title>
<path fill="none" stroke="black" d="M3525.43,-627.44C3527.06,-625.202 3528.6,-622.918 3530,-620.6 3564.39,-563.671 3579.19,-484.646 3584.49,-448.186"/>
<polygon fill="black" stroke="black" points="3525.27,-627.625 3524.59,-634.803 3517.7,-636.928 3518.38,-629.75 3525.27,-627.625"/>
</g>
<!-- 21 -->
<g id="node17" class="node"><title>21</title>
<polygon fill="lightblue" stroke="black" points="3162.96,-649.5 3162.96,-691.1 3273.04,-691.1 3273.04,-649.5 3162.96,-649.5"/>
<text text-anchor="middle" x="3218" y="-674.5" font-family="Times,serif" font-size="14.00">«FUNCTION»</text>
<text text-anchor="middle" x="3218" y="-657.7" font-family="Times,serif" font-size="14.00"> function</text>
</g>
<!-- 22 -->
<g id="node18" class="node"><title>22</title>
<polygon fill="khaki" stroke="black" points="2922.56,-649.5 2922.56,-691.1 3005.44,-691.1 3005.44,-649.5 2922.56,-649.5"/>
<text text-anchor="middle" x="2964" y="-674.5" font-family="Times,serif" font-size="14.00">«CLASS»</text>
<text text-anchor="middle" x="2964" y="-657.7" font-family="Times,serif" font-size="14.00"> Dashboard</text>
</g>
<!-- 23 -->
<g id="node19" class="node"><title>23</title>
<polygon fill="lightblue" stroke="black" points="2644.96,-394.1 2644.96,-460.5 2755.04,-460.5 2755.04,-394.1 2644.96,-394.1"/>
<text text-anchor="middle" x="2700" y="-443.9" font-family="Times,serif" font-size="14.00">«FUNCTION»</text>
<text text-anchor="middle" x="2700" y="-427.1" font-family="Times,serif" font-size="14.00"> propTypes()</text>
<polyline fill="none" stroke="black" points="2644.96,-418.9 2755.04,-418.9 "/>
<text text-anchor="start" x="2652.96" y="-402.3" font-family="Times,serif" font-size="14.00">&#45;state</text>
</g>
<!-- 22&#45;&gt;23 -->
<g id="edge8" class="edge"><title>22&#45;&gt;23</title>
<path fill="none" stroke="black" d="M2910.47,-662.671C2857.3,-655.046 2780.66,-640.91 2759,-620.6 2714.16,-578.563 2703.09,-503.435 2700.55,-460.585"/>
<polygon fill="black" stroke="black" points="2910.55,-662.681 2917.04,-659.546 2922.43,-664.334 2915.94,-667.469 2910.55,-662.681"/>
</g>
<!-- 24 -->
<g id="node20" class="node"><title>24</title>
<polygon fill="lightblue" stroke="black" points="2761.66,-406.5 2761.66,-448.1 2892.34,-448.1 2892.34,-406.5 2761.66,-406.5"/>
<text text-anchor="middle" x="2827" y="-431.5" font-family="Times,serif" font-size="14.00">«FUNCTION»</text>
<text text-anchor="middle" x="2827" y="-414.7" font-family="Times,serif" font-size="14.00"> getEmptyDataObj()</text>
</g>
<!-- 22&#45;&gt;24 -->
<g id="edge9" class="edge"><title>22&#45;&gt;24</title>
<path fill="none" stroke="black" d="M2917.81,-642.094C2909.75,-635.81 2902.04,-628.591 2896,-620.6 2854.95,-566.258 2836.66,-485.26 2830.09,-448.158"/>
<polygon fill="black" stroke="black" points="2918,-642.234 2925.21,-642.522 2927.71,-649.284 2920.51,-648.996 2918,-642.234"/>
</g>
<!-- 25 -->
<g id="node21" class="node"><title>25</title>
<polygon fill="lightblue" stroke="black" points="2899.43,-406.5 2899.43,-448.1 3028.57,-448.1 3028.57,-406.5 2899.43,-406.5"/>
<text text-anchor="middle" x="2964" y="-431.5" font-family="Times,serif" font-size="14.00">«FUNCTION»</text>
<text text-anchor="middle" x="2964" y="-414.7" font-family="Times,serif" font-size="14.00"> showRoomModal()</text>
</g>
<!-- 22&#45;&gt;25 -->
<g id="edge10" class="edge"><title>22&#45;&gt;25</title>
<path fill="none" stroke="black" d="M2964,-637.063C2964,-586.453 2964,-489.843 2964,-448.206"/>
<polygon fill="black" stroke="black" points="2964,-637.167 2968,-643.167 2964,-649.167 2960,-643.167 2964,-637.167"/>
</g>
<!-- 26 -->
<g id="node22" class="node"><title>26</title>
<polygon fill="lightblue" stroke="black" points="3035.96,-406.5 3035.96,-448.1 3146.04,-448.1 3146.04,-406.5 3035.96,-406.5"/>
<text text-anchor="middle" x="3091" y="-431.5" font-family="Times,serif" font-size="14.00">«FUNCTION»</text>
<text text-anchor="middle" x="3091" y="-414.7" font-family="Times,serif" font-size="14.00"> close()</text>
</g>
<!-- 22&#45;&gt;26 -->
<g id="edge11" class="edge"><title>22&#45;&gt;26</title>
<path fill="none" stroke="black" d="M3010.74,-642.121C3018.68,-635.863 3026.21,-628.646 3032,-620.6 3071.15,-566.167 3084.76,-485.215 3089.12,-448.141"/>
<polygon fill="black" stroke="black" points="3010.64,-642.196 3008.15,-648.964 3000.95,-649.271 3003.43,-642.503 3010.64,-642.196"/>
</g>
<!-- 27 -->
<g id="node23" class="node"><title>27</title>
<polygon fill="lightblue" stroke="black" points="3153.08,-293.3 3153.08,-561.3 3414.92,-561.3 3414.92,-293.3 3153.08,-293.3"/>
<text text-anchor="middle" x="3284" y="-544.7" font-family="Times,serif" font-size="14.00">«FUNCTION»</text>
<text text-anchor="middle" x="3284" y="-527.9" font-family="Times,serif" font-size="14.00"> render()</text>
<polyline fill="none" stroke="black" points="3153.08,-519.7 3414.92,-519.7 "/>
<text text-anchor="start" x="3161.08" y="-503.1" font-family="Times,serif" font-size="14.00">&#45;className : binaryexpression</text>
<text text-anchor="start" x="3161.08" y="-486.3" font-family="Times,serif" font-size="14.00">&#45;className : string = btn btn&#45;info pull&#45;right</text>
<text text-anchor="start" x="3161.08" y="-469.5" font-family="Times,serif" font-size="14.00">&#45;className : string = row</text>
<text text-anchor="start" x="3161.08" y="-452.7" font-family="Times,serif" font-size="14.00">&#45;close</text>
<text text-anchor="start" x="3161.08" y="-435.9" font-family="Times,serif" font-size="14.00">&#45;data</text>
<text text-anchor="start" x="3161.08" y="-419.1" font-family="Times,serif" font-size="14.00">&#45;margin : object</text>
<text text-anchor="start" x="3161.08" y="-402.3" font-family="Times,serif" font-size="14.00">&#45;noMargin : object</text>
<text text-anchor="start" x="3161.08" y="-385.5" font-family="Times,serif" font-size="14.00">&#45;onClick : binaryexpression</text>
<text text-anchor="start" x="3161.08" y="-368.7" font-family="Times,serif" font-size="14.00">&#45;roles</text>
<text text-anchor="start" x="3161.08" y="-351.9" font-family="Times,serif" font-size="14.00">&#45;save</text>
<text text-anchor="start" x="3161.08" y="-335.1" font-family="Times,serif" font-size="14.00">&#45;showModal</text>
<text text-anchor="start" x="3161.08" y="-318.3" font-family="Times,serif" font-size="14.00">&#45;style : binaryexpression</text>
<text text-anchor="start" x="3161.08" y="-301.5" font-family="Times,serif" font-size="14.00">&#45;title : binaryexpression</text>
</g>
<!-- 22&#45;&gt;27 -->
<g id="edge12" class="edge"><title>22&#45;&gt;27</title>
<path fill="none" stroke="black" d="M3017.63,-665.056C3056.95,-659.728 3110.05,-647.709 3149,-620.6 3171.77,-604.754 3191.96,-583.758 3209.35,-561.466"/>
<polygon fill="black" stroke="black" points="3017.55,-665.066 3012.09,-669.769 3005.64,-666.533 3011.11,-661.829 3017.55,-665.066"/>
</g>
<!-- 4 -->
<g id="node24" class="node"><title>4</title>
<polygon fill="lightyellow" stroke="black" points="4047.97,-637.1 4047.97,-703.5 4284.03,-703.5 4284.03,-637.1 4047.97,-637.1"/>
<text text-anchor="middle" x="4166" y="-686.9" font-family="Times,serif" font-size="14.00">«GLOBAL»</text>
<polyline fill="none" stroke="black" points="4047.97,-678.7 4284.03,-678.7 "/>
<text text-anchor="start" x="4055.97" y="-662.1" font-family="Times,serif" font-size="14.00">&#45;changePositionKey : binaryexpression</text>
<text text-anchor="start" x="4055.97" y="-645.3" font-family="Times,serif" font-size="14.00">&#45;toggleVisibilityKey : string = ctrl&#45;H</text>
</g>
<!-- 5 -->
<g id="node25" class="node"><title>5</title>
<polygon fill="lightyellow" stroke="black" points="5453.96,-652.3 5453.96,-688.3 5550.04,-688.3 5550.04,-652.3 5453.96,-652.3"/>
<text text-anchor="middle" x="5502" y="-666.2" font-family="Times,serif" font-size="14.00">«GLOBAL»</text>
</g>
<!-- 47 -->
<g id="node26" class="node"><title>47</title>
<polygon fill="lightblue" stroke="black" points="5238.58,-637.1 5238.58,-703.5 5349.42,-703.5 5349.42,-637.1 5238.58,-637.1"/>
<text text-anchor="middle" x="5294" y="-686.9" font-family="Times,serif" font-size="14.00">«FUNCTION»</text>
<text text-anchor="middle" x="5294" y="-670.1" font-family="Times,serif" font-size="14.00"> function</text>
<polyline fill="none" stroke="black" points="5238.58,-661.9 5349.42,-661.9 "/>
<text text-anchor="start" x="5246.58" y="-645.3" font-family="Times,serif" font-size="14.00">&#45;promises : array</text>
</g>
<!-- 48 -->
<g id="node27" class="node"><title>48</title>
<polygon fill="khaki" stroke="black" points="5241.48,-406.5 5241.48,-448.1 5346.52,-448.1 5346.52,-406.5 5241.48,-406.5"/>
<text text-anchor="middle" x="5294" y="-431.5" font-family="Times,serif" font-size="14.00">«BLOCK»</text>
<text text-anchor="middle" x="5294" y="-414.7" font-family="Times,serif" font-size="14.00"> CallExpression</text>
</g>
<!-- 47&#45;&gt;48 -->
<g id="edge25" class="edge"><title>47&#45;&gt;48</title>
<path fill="none" stroke="black" d="M5294,-624.481C5294,-571.84 5294,-486.824 5294,-448.352"/>
<polygon fill="black" stroke="black" points="5294,-624.798 5298,-630.798 5294,-636.798 5290,-630.798 5294,-624.798"/>
</g>
<!-- 49 -->
<g id="node28" class="node"><title>49</title>
<polygon fill="lightblue" stroke="black" points="5000.96,-649.5 5000.96,-691.1 5111.04,-691.1 5111.04,-649.5 5000.96,-649.5"/>
<text text-anchor="middle" x="5056" y="-674.5" font-family="Times,serif" font-size="14.00">«FUNCTION»</text>
<text text-anchor="middle" x="5056" y="-657.7" font-family="Times,serif" font-size="14.00"> function</text>
</g>
<!-- 50 -->
<g id="node29" class="node"><title>50</title>
<polygon fill="khaki" stroke="black" points="4801.56,-649.5 4801.56,-691.1 4884.44,-691.1 4884.44,-649.5 4801.56,-649.5"/>
<text text-anchor="middle" x="4843" y="-674.5" font-family="Times,serif" font-size="14.00">«CLASS»</text>
<text text-anchor="middle" x="4843" y="-657.7" font-family="Times,serif" font-size="14.00"> Login</text>
</g>
<!-- 51 -->
<g id="node30" class="node"><title>51</title>
<polygon fill="lightblue" stroke="black" points="4710.18,-394.1 4710.18,-460.5 4853.82,-460.5 4853.82,-394.1 4710.18,-394.1"/>
<text text-anchor="middle" x="4782" y="-443.9" font-family="Times,serif" font-size="14.00">«FUNCTION»</text>
<text text-anchor="middle" x="4782" y="-427.1" font-family="Times,serif" font-size="14.00"> propTypes()</text>
<polyline fill="none" stroke="black" points="4710.18,-418.9 4853.82,-418.9 "/>
<text text-anchor="start" x="4718.18" y="-402.3" font-family="Times,serif" font-size="14.00">&#45;handleSubmit = event</text>
</g>
<!-- 50&#45;&gt;51 -->
<g id="edge26" class="edge"><title>50&#45;&gt;51</title>
<path fill="none" stroke="black" d="M4834.89,-637.26C4823.23,-591.21 4801.87,-506.785 4790.17,-460.594"/>
<polygon fill="black" stroke="black" points="4834.96,-637.534 4840.31,-642.369 4837.9,-649.167 4832.55,-644.332 4834.96,-637.534"/>
</g>
<!-- 53 -->
<g id="node32" class="node"><title>53</title>
<polygon fill="lightblue" stroke="black" points="4860.79,-259.7 4860.79,-594.9 5185.21,-594.9 5185.21,-259.7 4860.79,-259.7"/>
<text text-anchor="middle" x="5023" y="-578.3" font-family="Times,serif" font-size="14.00">«FUNCTION»</text>
<text text-anchor="middle" x="5023" y="-561.5" font-family="Times,serif" font-size="14.00"> render()</text>
<polyline fill="none" stroke="black" points="4860.79,-553.3 5185.21,-553.3 "/>
<text text-anchor="start" x="4868.79" y="-536.7" font-family="Times,serif" font-size="14.00">&#45;className : binaryexpression</text>
<text text-anchor="start" x="4868.79" y="-519.9" font-family="Times,serif" font-size="14.00">&#45;className : string = btn btn&#45;success pull&#45;right</text>
<text text-anchor="start" x="4868.79" y="-503.1" font-family="Times,serif" font-size="14.00">&#45;className : string = col&#45;md&#45;6 col&#45;md&#45;offset&#45;3 login...</text>
<text text-anchor="start" x="4868.79" y="-486.3" font-family="Times,serif" font-size="14.00">&#45;href : binaryexpression</text>
<text text-anchor="start" x="4868.79" y="-469.5" font-family="Times,serif" font-size="14.00">&#45;htmlFor : binaryexpression</text>
<text text-anchor="start" x="4868.79" y="-452.7" font-family="Times,serif" font-size="14.00">&#45;id : string = email</text>
<text text-anchor="start" x="4868.79" y="-435.9" font-family="Times,serif" font-size="14.00">&#45;id : string = pwd</text>
<text text-anchor="start" x="4868.79" y="-419.1" font-family="Times,serif" font-size="14.00">&#45;onClick : binaryexpression</text>
<text text-anchor="start" x="4868.79" y="-402.3" font-family="Times,serif" font-size="14.00">&#45;onSubmit : binaryexpression</text>
<text text-anchor="start" x="4868.79" y="-385.5" font-family="Times,serif" font-size="14.00">&#45;placeholder : string = Enter your email</text>
<text text-anchor="start" x="4868.79" y="-368.7" font-family="Times,serif" font-size="14.00">&#45;placeholder : string = Enter your password</text>
<text text-anchor="start" x="4868.79" y="-351.9" font-family="Times,serif" font-size="14.00">&#45;ref : string = email</text>
<text text-anchor="start" x="4868.79" y="-335.1" font-family="Times,serif" font-size="14.00">&#45;ref : string = password</text>
<text text-anchor="start" x="4868.79" y="-318.3" font-family="Times,serif" font-size="14.00">&#45;styles : variable = .Login.scss</text>
<text text-anchor="start" x="4868.79" y="-301.5" font-family="Times,serif" font-size="14.00">&#45;title : binaryexpression</text>
<text text-anchor="start" x="4868.79" y="-284.7" font-family="Times,serif" font-size="14.00">&#45;type : string = email</text>
<text text-anchor="start" x="4868.79" y="-267.9" font-family="Times,serif" font-size="14.00">&#45;type : string = password</text>
</g>
<!-- 50&#45;&gt;53 -->
<g id="edge28" class="edge"><title>50&#45;&gt;53</title>
<path fill="none" stroke="black" d="M4865.49,-639.182C4874.66,-626.915 4886.01,-611.71 4898.4,-595.124"/>
<polygon fill="black" stroke="black" points="4865.22,-639.553 4864.83,-646.753 4858.04,-649.167 4858.42,-641.966 4865.22,-639.553"/>
</g>
<!-- 52 -->
<g id="node31" class="node"><title>52</title>
<polygon fill="lightblue" stroke="black" points="4706.55,-91.9 4706.55,-208.7 4857.45,-208.7 4857.45,-91.9 4706.55,-91.9"/>
<text text-anchor="middle" x="4782" y="-192.1" font-family="Times,serif" font-size="14.00">«FUNCTION»</text>
<text text-anchor="middle" x="4782" y="-175.3" font-family="Times,serif" font-size="14.00"> function</text>
<polyline fill="none" stroke="black" points="4706.55,-167.1 4857.45,-167.1 "/>
<text text-anchor="start" x="4714.55" y="-150.5" font-family="Times,serif" font-size="14.00">&#45;password : object</text>
<text text-anchor="start" x="4714.55" y="-133.7" font-family="Times,serif" font-size="14.00">&#45;password.value : string</text>
<text text-anchor="start" x="4714.55" y="-116.9" font-family="Times,serif" font-size="14.00">&#45;username : object</text>
<text text-anchor="start" x="4714.55" y="-100.1" font-family="Times,serif" font-size="14.00">&#45;username.value : string</text>
</g>
<!-- 51&#45;&gt;52 -->
<g id="edge27" class="edge"><title>51&#45;&gt;52</title>
<path fill="none" stroke="black" d="M4782,-381.733C4782,-334.691 4782,-260.368 4782,-208.907"/>
<polygon fill="black" stroke="black" points="4782,-381.945 4786,-387.945 4782,-393.945 4778,-387.945 4782,-381.945"/>
</g>
<!-- 54 -->
<g id="node33" class="node"><title>54</title>
<polygon fill="khaki" stroke="black" points="4943.07,-129.5 4943.07,-171.1 5018.93,-171.1 5018.93,-129.5 4943.07,-129.5"/>
<text text-anchor="middle" x="4981" y="-154.5" font-family="Times,serif" font-size="14.00">«WITH»</text>
<text text-anchor="middle" x="4981" y="-137.7" font-family="Times,serif" font-size="14.00"> with</text>
</g>
<!-- 53&#45;&gt;54 -->
<g id="edge29" class="edge"><title>53&#45;&gt;54</title>
<path fill="none" stroke="black" d="M4995.72,-247.675C4991.02,-216.929 4986.79,-189.204 4984.08,-171.47"/>
<polygon fill="black" stroke="black" points="4995.73,-247.73 5000.59,-253.057 4997.54,-259.593 4992.68,-254.265 4995.73,-247.73"/>
</g>
<!-- 55 -->
<g id="node34" class="node"><title>55</title>
<polygon fill="khaki" stroke="black" points="5026.07,-129.5 5026.07,-171.1 5101.93,-171.1 5101.93,-129.5 5026.07,-129.5"/>
<text text-anchor="middle" x="5064" y="-154.5" font-family="Times,serif" font-size="14.00">«WITH»</text>
<text text-anchor="middle" x="5064" y="-137.7" font-family="Times,serif" font-size="14.00"> with</text>
</g>
<!-- 53&#45;&gt;55 -->
<g id="edge30" class="edge"><title>53&#45;&gt;55</title>
<path fill="none" stroke="black" d="M5049.63,-247.675C5054.22,-216.929 5058.35,-189.204 5060.99,-171.47"/>
<polygon fill="black" stroke="black" points="5049.62,-247.724 5052.7,-254.248 5047.85,-259.593 5044.78,-253.068 5049.62,-247.724"/>
</g>
<!-- 6 -->
<g id="node35" class="node"><title>6</title>
<polygon fill="lightyellow" stroke="black" points="6299.96,-652.3 6299.96,-688.3 6396.04,-688.3 6396.04,-652.3 6299.96,-652.3"/>
<text text-anchor="middle" x="6348" y="-666.2" font-family="Times,serif" font-size="14.00">«GLOBAL»</text>
</g>
<!-- 28 -->
<g id="node36" class="node"><title>28</title>
<polygon fill="lightblue" stroke="black" points="5987.96,-649.5 5987.96,-691.1 6098.04,-691.1 6098.04,-649.5 5987.96,-649.5"/>
<text text-anchor="middle" x="6043" y="-674.5" font-family="Times,serif" font-size="14.00">«FUNCTION»</text>
<text text-anchor="middle" x="6043" y="-657.7" font-family="Times,serif" font-size="14.00"> NotFound()</text>
</g>
<!-- 7 -->
<g id="node37" class="node"><title>7</title>
<polygon fill="lightyellow" stroke="black" points="7434.96,-652.3 7434.96,-688.3 7531.04,-688.3 7531.04,-652.3 7434.96,-652.3"/>
<text text-anchor="middle" x="7483" y="-666.2" font-family="Times,serif" font-size="14.00">«GLOBAL»</text>
</g>
<!-- 29 -->
<g id="node38" class="node"><title>29</title>
<polygon fill="lightblue" stroke="black" points="7191.58,-637.1 7191.58,-703.5 7302.42,-703.5 7302.42,-637.1 7191.58,-637.1"/>
<text text-anchor="middle" x="7247" y="-686.9" font-family="Times,serif" font-size="14.00">«FUNCTION»</text>
<text text-anchor="middle" x="7247" y="-670.1" font-family="Times,serif" font-size="14.00"> function</text>
<polyline fill="none" stroke="black" points="7191.58,-661.9 7302.42,-661.9 "/>
<text text-anchor="start" x="7199.58" y="-645.3" font-family="Times,serif" font-size="14.00">&#45;promises : array</text>
</g>
<!-- 30 -->
<g id="node39" class="node"><title>30</title>
<polygon fill="khaki" stroke="black" points="7194.48,-406.5 7194.48,-448.1 7299.52,-448.1 7299.52,-406.5 7194.48,-406.5"/>
<text text-anchor="middle" x="7247" y="-431.5" font-family="Times,serif" font-size="14.00">«BLOCK»</text>
<text text-anchor="middle" x="7247" y="-414.7" font-family="Times,serif" font-size="14.00"> CallExpression</text>
</g>
<!-- 29&#45;&gt;30 -->
<g id="edge13" class="edge"><title>29&#45;&gt;30</title>
<path fill="none" stroke="black" d="M7247,-624.481C7247,-571.84 7247,-486.824 7247,-448.352"/>
<polygon fill="black" stroke="black" points="7247,-624.798 7251,-630.798 7247,-636.798 7243,-630.798 7247,-624.798"/>
</g>
<!-- 31 -->
<g id="node40" class="node"><title>31</title>
<polygon fill="lightblue" stroke="black" points="6953.96,-649.5 6953.96,-691.1 7064.04,-691.1 7064.04,-649.5 6953.96,-649.5"/>
<text text-anchor="middle" x="7009" y="-674.5" font-family="Times,serif" font-size="14.00">«FUNCTION»</text>
<text text-anchor="middle" x="7009" y="-657.7" font-family="Times,serif" font-size="14.00"> function</text>
</g>
<!-- 32 -->
<g id="node41" class="node"><title>32</title>
<polygon fill="khaki" stroke="black" points="6740.56,-649.5 6740.56,-691.1 6823.44,-691.1 6823.44,-649.5 6740.56,-649.5"/>
<text text-anchor="middle" x="6782" y="-674.5" font-family="Times,serif" font-size="14.00">«CLASS»</text>
<text text-anchor="middle" x="6782" y="-657.7" font-family="Times,serif" font-size="14.00"> Register</text>
</g>
<!-- 33 -->
<g id="node42" class="node"><title>33</title>
<polygon fill="lightblue" stroke="black" points="6649.18,-394.1 6649.18,-460.5 6792.82,-460.5 6792.82,-394.1 6649.18,-394.1"/>
<text text-anchor="middle" x="6721" y="-443.9" font-family="Times,serif" font-size="14.00">«FUNCTION»</text>
<text text-anchor="middle" x="6721" y="-427.1" font-family="Times,serif" font-size="14.00"> propTypes()</text>
<polyline fill="none" stroke="black" points="6649.18,-418.9 6792.82,-418.9 "/>
<text text-anchor="start" x="6657.18" y="-402.3" font-family="Times,serif" font-size="14.00">&#45;handleSubmit = event</text>
</g>
<!-- 32&#45;&gt;33 -->
<g id="edge14" class="edge"><title>32&#45;&gt;33</title>
<path fill="none" stroke="black" d="M6773.89,-637.26C6762.23,-591.21 6740.87,-506.785 6729.17,-460.594"/>
<polygon fill="black" stroke="black" points="6773.96,-637.534 6779.31,-642.369 6776.9,-649.167 6771.55,-644.332 6773.96,-637.534"/>
</g>
<!-- 35 -->
<g id="node44" class="node"><title>35</title>
<polygon fill="lightblue" stroke="black" points="6799.79,-234.5 6799.79,-620.1 7124.21,-620.1 7124.21,-234.5 6799.79,-234.5"/>
<text text-anchor="middle" x="6962" y="-603.5" font-family="Times,serif" font-size="14.00">«FUNCTION»</text>
<text text-anchor="middle" x="6962" y="-586.7" font-family="Times,serif" font-size="14.00"> render()</text>
<polyline fill="none" stroke="black" points="6799.79,-578.5 7124.21,-578.5 "/>
<text text-anchor="start" x="6807.79" y="-561.9" font-family="Times,serif" font-size="14.00">&#45;className : binaryexpression</text>
<text text-anchor="start" x="6807.79" y="-545.1" font-family="Times,serif" font-size="14.00">&#45;className : string = btn btn&#45;success pull&#45;right</text>
<text text-anchor="start" x="6807.79" y="-528.3" font-family="Times,serif" font-size="14.00">&#45;className : string = col&#45;md&#45;6 col&#45;md&#45;offset&#45;3 login...</text>
<text text-anchor="start" x="6807.79" y="-511.5" font-family="Times,serif" font-size="14.00">&#45;htmlFor : binaryexpression</text>
<text text-anchor="start" x="6807.79" y="-494.7" font-family="Times,serif" font-size="14.00">&#45;id : string = email</text>
<text text-anchor="start" x="6807.79" y="-477.9" font-family="Times,serif" font-size="14.00">&#45;id : string = pwd</text>
<text text-anchor="start" x="6807.79" y="-461.1" font-family="Times,serif" font-size="14.00">&#45;id : string = username</text>
<text text-anchor="start" x="6807.79" y="-444.3" font-family="Times,serif" font-size="14.00">&#45;onClick : binaryexpression</text>
<text text-anchor="start" x="6807.79" y="-427.5" font-family="Times,serif" font-size="14.00">&#45;onSubmit : binaryexpression</text>
<text text-anchor="start" x="6807.79" y="-410.7" font-family="Times,serif" font-size="14.00">&#45;placeholder : string = Enter your email</text>
<text text-anchor="start" x="6807.79" y="-393.9" font-family="Times,serif" font-size="14.00">&#45;placeholder : string = Enter your password</text>
<text text-anchor="start" x="6807.79" y="-377.1" font-family="Times,serif" font-size="14.00">&#45;placeholder : string = Enter your username</text>
<text text-anchor="start" x="6807.79" y="-360.3" font-family="Times,serif" font-size="14.00">&#45;ref : string = email</text>
<text text-anchor="start" x="6807.79" y="-343.5" font-family="Times,serif" font-size="14.00">&#45;ref : string = password</text>
<text text-anchor="start" x="6807.79" y="-326.7" font-family="Times,serif" font-size="14.00">&#45;ref : string = username</text>
<text text-anchor="start" x="6807.79" y="-309.9" font-family="Times,serif" font-size="14.00">&#45;styles : variable = ..LoginLogin.scss</text>
<text text-anchor="start" x="6807.79" y="-293.1" font-family="Times,serif" font-size="14.00">&#45;title : binaryexpression</text>
<text text-anchor="start" x="6807.79" y="-276.3" font-family="Times,serif" font-size="14.00">&#45;type : string = email</text>
<text text-anchor="start" x="6807.79" y="-259.5" font-family="Times,serif" font-size="14.00">&#45;type : string = password</text>
<text text-anchor="start" x="6807.79" y="-242.7" font-family="Times,serif" font-size="14.00">&#45;type : string = text</text>
</g>
<!-- 32&#45;&gt;35 -->
<g id="edge16" class="edge"><title>32&#45;&gt;35</title>
<path fill="none" stroke="black" d="M6804.28,-639.466C6808.62,-633.657 6813.46,-627.181 6818.67,-620.205"/>
<polygon fill="black" stroke="black" points="6804.22,-639.553 6803.83,-646.753 6797.04,-649.167 6797.42,-641.966 6804.22,-639.553"/>
</g>
<!-- 34 -->
<g id="node43" class="node"><title>34</title>
<polygon fill="lightblue" stroke="black" points="6645.55,-75.1 6645.55,-225.5 6796.45,-225.5 6796.45,-75.1 6645.55,-75.1"/>
<text text-anchor="middle" x="6721" y="-208.9" font-family="Times,serif" font-size="14.00">«FUNCTION»</text>
<text text-anchor="middle" x="6721" y="-192.1" font-family="Times,serif" font-size="14.00"> function</text>
<polyline fill="none" stroke="black" points="6645.55,-183.9 6796.45,-183.9 "/>
<text text-anchor="start" x="6653.55" y="-167.3" font-family="Times,serif" font-size="14.00">&#45;email : object</text>
<text text-anchor="start" x="6653.55" y="-150.5" font-family="Times,serif" font-size="14.00">&#45;email.value : string</text>
<text text-anchor="start" x="6653.55" y="-133.7" font-family="Times,serif" font-size="14.00">&#45;password : object</text>
<text text-anchor="start" x="6653.55" y="-116.9" font-family="Times,serif" font-size="14.00">&#45;password.value : string</text>
<text text-anchor="start" x="6653.55" y="-100.1" font-family="Times,serif" font-size="14.00">&#45;username : object</text>
<text text-anchor="start" x="6653.55" y="-83.3" font-family="Times,serif" font-size="14.00">&#45;username.value : string</text>
</g>
<!-- 33&#45;&gt;34 -->
<g id="edge15" class="edge"><title>33&#45;&gt;34</title>
<path fill="none" stroke="black" d="M6721,-381.877C6721,-339.732 6721,-275.597 6721,-225.657"/>
<polygon fill="black" stroke="black" points="6721,-381.945 6725,-387.945 6721,-393.945 6717,-387.945 6721,-381.945"/>
</g>
<!-- 8 -->
<g id="node45" class="node"><title>8</title>
<polygon fill="lightyellow" stroke="black" points="8372.96,-652.3 8372.96,-688.3 8469.04,-688.3 8469.04,-652.3 8372.96,-652.3"/>
<text text-anchor="middle" x="8421" y="-666.2" font-family="Times,serif" font-size="14.00">«GLOBAL»</text>
</g>
<!-- 36 -->
<g id="node46" class="node"><title>36</title>
<polygon fill="lightblue" stroke="black" points="8230.96,-649.5 8230.96,-691.1 8341.04,-691.1 8341.04,-649.5 8230.96,-649.5"/>
<text text-anchor="middle" x="8286" y="-674.5" font-family="Times,serif" font-size="14.00">«FUNCTION»</text>
<text text-anchor="middle" x="8286" y="-657.7" font-family="Times,serif" font-size="14.00"> function</text>
</g>
<!-- 37 -->
<g id="node47" class="node"><title>37</title>
<polygon fill="lightblue" stroke="black" points="8063.96,-649.5 8063.96,-691.1 8174.04,-691.1 8174.04,-649.5 8063.96,-649.5"/>
<text text-anchor="middle" x="8119" y="-674.5" font-family="Times,serif" font-size="14.00">«FUNCTION»</text>
<text text-anchor="middle" x="8119" y="-657.7" font-family="Times,serif" font-size="14.00"> function</text>
</g>
<!-- 38 -->
<g id="node48" class="node"><title>38</title>
<polygon fill="khaki" stroke="black" points="7875.56,-649.5 7875.56,-691.1 7958.44,-691.1 7958.44,-649.5 7875.56,-649.5"/>
<text text-anchor="middle" x="7917" y="-674.5" font-family="Times,serif" font-size="14.00">«CLASS»</text>
<text text-anchor="middle" x="7917" y="-657.7" font-family="Times,serif" font-size="14.00"> Room</text>
</g>
<!-- 39 -->
<g id="node49" class="node"><title>39</title>
<polygon fill="lightblue" stroke="black" points="7598.96,-406.5 7598.96,-448.1 7709.04,-448.1 7709.04,-406.5 7598.96,-406.5"/>
<text text-anchor="middle" x="7654" y="-431.5" font-family="Times,serif" font-size="14.00">«FUNCTION»</text>
<text text-anchor="middle" x="7654" y="-414.7" font-family="Times,serif" font-size="14.00"> propTypes()</text>
</g>
<!-- 38&#45;&gt;39 -->
<g id="edge17" class="edge"><title>38&#45;&gt;39</title>
<path fill="none" stroke="black" d="M7863.28,-662.572C7810.38,-654.905 7734.49,-640.77 7713,-620.6 7663.47,-574.117 7655.15,-487.262 7654,-448.214"/>
<polygon fill="black" stroke="black" points="7863.3,-662.575 7869.8,-659.449 7875.18,-664.246 7868.68,-667.372 7863.3,-662.575"/>
</g>
<!-- 40 -->
<g id="node50" class="node"><title>40</title>
<polygon fill="lightblue" stroke="black" points="7715.96,-406.5 7715.96,-448.1 7826.04,-448.1 7826.04,-406.5 7715.96,-406.5"/>
<text text-anchor="middle" x="7771" y="-431.5" font-family="Times,serif" font-size="14.00">«FUNCTION»</text>
<text text-anchor="middle" x="7771" y="-414.7" font-family="Times,serif" font-size="14.00"> state()</text>
</g>
<!-- 38&#45;&gt;40 -->
<g id="edge18" class="edge"><title>38&#45;&gt;40</title>
<path fill="none" stroke="black" d="M7864.49,-648.307C7851.75,-641.128 7839.17,-631.965 7830,-620.6 7787.78,-568.29 7775.69,-485.917 7772.3,-448.27"/>
<polygon fill="black" stroke="black" points="7864.52,-648.323 7871.69,-647.553 7875.16,-653.875 7867.99,-654.646 7864.52,-648.323"/>
</g>
<!-- 41 -->
<g id="node51" class="node"><title>41</title>
<polygon fill="lightblue" stroke="black" points="7832.6,-406.5 7832.6,-448.1 8001.4,-448.1 8001.4,-406.5 7832.6,-406.5"/>
<text text-anchor="middle" x="7917" y="-431.5" font-family="Times,serif" font-size="14.00">«FUNCTION»</text>
<text text-anchor="middle" x="7917" y="-414.7" font-family="Times,serif" font-size="14.00"> componentWillUnmount()</text>
</g>
<!-- 38&#45;&gt;41 -->
<g id="edge19" class="edge"><title>38&#45;&gt;41</title>
<path fill="none" stroke="black" d="M7917,-637.063C7917,-586.453 7917,-489.843 7917,-448.206"/>
<polygon fill="black" stroke="black" points="7917,-637.167 7921,-643.167 7917,-649.167 7913,-643.167 7917,-637.167"/>
</g>
<!-- 43 -->
<g id="node53" class="node"><title>43</title>
<polygon fill="lightblue" stroke="black" points="8008.03,-394.1 8008.03,-460.5 8181.97,-460.5 8181.97,-394.1 8008.03,-394.1"/>
<text text-anchor="middle" x="8095" y="-443.9" font-family="Times,serif" font-size="14.00">«FUNCTION»</text>
<text text-anchor="middle" x="8095" y="-427.1" font-family="Times,serif" font-size="14.00"> onInit()</text>
<polyline fill="none" stroke="black" points="8008.03,-418.9 8181.97,-418.9 "/>
<text text-anchor="start" x="8016.03" y="-402.3" font-family="Times,serif" font-size="14.00">&#45;onMessageReceived = data</text>
</g>
<!-- 38&#45;&gt;43 -->
<g id="edge21" class="edge"><title>38&#45;&gt;43</title>
<path fill="none" stroke="black" d="M7969.52,-646.762C7981.91,-639.695 7994.31,-630.972 8004,-620.6 8047.74,-573.766 8073.99,-502.086 8086.37,-460.75"/>
<polygon fill="black" stroke="black" points="7969.29,-646.886 7965.88,-653.243 7958.71,-652.546 7962.11,-646.189 7969.29,-646.886"/>
</g>
<!-- 46 -->
<g id="node56" class="node"><title>46</title>
<polygon fill="lightblue" stroke="black" points="8189.27,-406.5 8189.27,-448.1 8348.73,-448.1 8348.73,-406.5 8189.27,-406.5"/>
<text text-anchor="middle" x="8269" y="-431.5" font-family="Times,serif" font-size="14.00">«FUNCTION»</text>
<text text-anchor="middle" x="8269" y="-414.7" font-family="Times,serif" font-size="14.00"> sendMessage(✖,✖,✖,✖,)</text>
</g>
<!-- 38&#45;&gt;46 -->
<g id="edge24" class="edge"><title>38&#45;&gt;46</title>
<path fill="none" stroke="black" d="M7970.44,-651.156C7997.05,-642.879 8029.89,-633.787 8060,-628.6 8073.72,-626.237 8173.6,-628.589 8185,-620.6 8243.47,-579.61 8261.65,-488.663 8266.96,-448.284"/>
<polygon fill="black" stroke="black" points="7970.13,-651.256 7965.62,-656.883 7958.69,-654.884 7963.2,-649.257 7970.13,-651.256"/>
</g>
<!-- 42 -->
<g id="node52" class="node"><title>42</title>
<polygon fill="khaki" stroke="black" points="7864.48,-129.5 7864.48,-171.1 7969.52,-171.1 7969.52,-129.5 7864.48,-129.5"/>
<text text-anchor="middle" x="7917" y="-154.5" font-family="Times,serif" font-size="14.00">«BLOCK»</text>
<text text-anchor="middle" x="7917" y="-137.7" font-family="Times,serif" font-size="14.00"> CallExpression</text>
</g>
<!-- 41&#45;&gt;42 -->
<g id="edge20" class="edge"><title>41&#45;&gt;42</title>
<path fill="none" stroke="black" d="M7917,-393.799C7917,-336.263 7917,-218.133 7917,-171.18"/>
<polygon fill="black" stroke="black" points="7917,-394.079 7921,-400.079 7917,-406.079 7913,-400.079 7917,-394.079"/>
</g>
<!-- 44 -->
<g id="node54" class="node"><title>44</title>
<polygon fill="lightblue" stroke="black" points="8039.96,-108.7 8039.96,-191.9 8150.04,-191.9 8150.04,-108.7 8039.96,-108.7"/>
<text text-anchor="middle" x="8095" y="-175.3" font-family="Times,serif" font-size="14.00">«FUNCTION»</text>
<text text-anchor="middle" x="8095" y="-158.5" font-family="Times,serif" font-size="14.00"> function</text>
<polyline fill="none" stroke="black" points="8039.96,-150.3 8150.04,-150.3 "/>
<text text-anchor="start" x="8047.96" y="-133.7" font-family="Times,serif" font-size="14.00">&#45;room : object</text>
<text text-anchor="start" x="8047.96" y="-116.9" font-family="Times,serif" font-size="14.00">&#45;room.messages</text>
</g>
<!-- 43&#45;&gt;44 -->
<g id="edge22" class="edge"><title>43&#45;&gt;44</title>
<path fill="none" stroke="black" d="M8095,-381.69C8095,-329.187 8095,-242.746 8095,-192.001"/>
<polygon fill="black" stroke="black" points="8095,-381.945 8099,-387.945 8095,-393.945 8091,-387.945 8095,-381.945"/>
</g>
<!-- 45 -->
<g id="node55" class="node"><title>45</title>
<polygon fill="khaki" stroke="black" points="8020.71,-16.5 8020.71,-58.1 8169.29,-58.1 8169.29,-16.5 8020.71,-16.5"/>
<text text-anchor="middle" x="8095" y="-41.5" font-family="Times,serif" font-size="14.00">«BLOCK»</text>
<text text-anchor="middle" x="8095" y="-24.7" font-family="Times,serif" font-size="14.00"> AssignmentExpression</text>
</g>
<!-- 44&#45;&gt;45 -->
<g id="edge23" class="edge"><title>44&#45;&gt;45</title>
<path fill="none" stroke="black" d="M8095,-96.2604C8095,-82.6634 8095,-68.8692 8095,-58.1506"/>
<polygon fill="black" stroke="black" points="8095,-96.598 8099,-102.598 8095,-108.598 8091,-102.598 8095,-96.598"/>
</g>
</g>
</svg>
